<?xml version="1.0" standalone="no"?>
<!DOCTYPE svg PUBLIC "-//W3C//DTD SVG 20010904//EN"
 "http://www.w3.org/TR/2001/REC-SVG-20010904/DTD/svg10.dtd">
<svg version="1.0" xmlns="http://www.w3.org/2000/svg"
 width="1024.000000pt" height="1024.000000pt" viewBox="0 0 1024.000000 1024.000000"
 preserveAspectRatio="xMidYMid meet">
<metadata>
Created by potrace 1.14, written by Peter Selinger 2001-2017
</metadata>
<g transform="translate(0.000000,1024.000000) scale(0.100000,-0.100000)"
fill="#000000" stroke="none">
<path d="M0 10220 c0 -18 2 -18 46 -5 64 19 65 25 6 25 -45 0 -52 -3 -52 -20z"/>
<path d="M553 10180 c-121 -61 -279 -176 -328 -237 -129 -162 -149 -211 -192
-463 l-28 -165 -3 -4120 c-3 -3116 0 -4148 8 -4235 17 -165 67 -363 103 -408
6 -7 22 -48 36 -90 23 -68 31 -80 81 -119 30 -24 69 -56 85 -71 58 -54 203
-128 320 -164 104 -32 235 -87 235 -99 0 -12 8553 -12 8594 0 17 5 85 21 151
36 66 15 141 38 166 52 144 77 360 397 412 613 50 203 47 -55 47 4556 0 2517
-4 4294 -9 4294 -5 0 -35 64 -67 143 l-58 142 -110 113 c-118 121 -167 154
-286 197 -41 14 -103 40 -136 56 l-62 29 -4423 -2 -4424 -1 -112 -57z m5042
-1250 c214 -6 391 -12 392 -14 4 -3 -13 -1055 -23 -1458 l-7 -268 102 0 c74 0
101 3 101 13 1 26 109 117 139 117 11 0 60 41 115 96 48 49 56 59 75 96 8 16
25 30 41 33 16 4 30 15 33 26 3 11 15 23 26 26 12 3 21 8 21 12 1 14 59 71 73
71 18 0 29 24 21 45 -4 10 0 15 15 15 12 0 21 5 21 10 0 6 9 10 20 10 11 0 20
5 20 10 0 6 9 10 20 10 13 0 20 7 20 20 0 13 7 20 20 20 13 0 20 7 20 20 0 13
7 20 20 20 11 0 20 5 20 10 0 6 7 10 15 10 8 0 15 5 15 10 0 6 7 10 15 10 8 0
15 5 15 10 0 6 -4 10 -10 10 -5 0 -10 5 -10 10 0 6 15 10 34 10 19 0 38 5 41
10 3 6 15 10 26 10 10 0 19 7 19 15 0 8 9 15 20 15 11 0 20 6 20 13 0 14 40
37 65 37 8 0 15 7 15 15 0 9 9 15 24 15 34 0 56 10 56 26 0 8 18 16 50 20 31
4 50 12 50 20 0 8 18 15 48 19 26 3 66 10 89 15 23 6 56 10 72 10 17 0 31 5
31 10 0 6 7 10 15 10 7 0 18 7 22 15 6 11 36 16 113 21 99 6 169 22 110 25
-52 2 27 19 168 36 36 4 52 2 52 -6 0 -6 9 -11 20 -11 11 0 20 6 20 14 0 10
21 15 75 18 61 4 79 9 94 26 10 12 24 22 30 22 7 0 19 6 27 14 7 8 19 16 26
19 31 11 -9 20 -124 28 -68 5 -132 11 -143 12 -11 1 126 6 304 10 184 5 328 4
333 -1 13 -13 23 -1261 10 -1293 l-10 -26 -1289 -5 c-812 -4 -1323 -2 -1382 4
-125 13 -126 12 -112 -113 16 -146 21 -1013 11 -2174 -5 -583 -12 -1512 -16
-2065 -4 -635 -10 -1010 -17 -1017 -7 -10 -183 -13 -817 -13 l-808 0 -6 213
c-10 358 -15 3367 -6 3302 5 -33 12 -86 15 -117 l6 -58 40 0 c32 0 39 3 39 20
0 13 7 20 20 20 11 0 20 5 20 10 0 6 9 10 20 10 11 0 20 5 20 10 0 6 9 10 20
10 11 0 20 5 20 10 0 6 9 10 20 10 11 0 20 5 20 10 0 6 9 10 20 10 11 0 20 5
20 10 0 6 9 10 19 10 11 0 23 5 26 10 3 6 22 10 41 10 19 0 34 5 34 10 0 6 9
10 20 10 11 0 20 5 20 10 0 6 -9 10 -20 10 -11 0 -20 5 -20 10 0 6 9 10 20 10
11 0 20 5 20 10 0 6 9 10 20 10 13 0 20 7 20 20 0 13 7 20 20 20 11 0 20 5 20
10 0 6 9 10 20 10 13 0 20 7 20 20 0 16 7 20 30 20 30 0 41 15 18 22 -17 6 14
38 36 38 9 0 16 8 16 20 0 11 5 20 10 20 6 0 10 9 10 20 0 11 7 20 15 20 20 0
65 45 65 65 0 11 11 15 40 15 33 0 40 3 40 20 0 11 5 20 10 20 6 0 10 9 10 20
0 12 7 20 16 20 18 0 44 23 44 40 0 17 26 40 44 40 9 0 16 8 16 20 0 11 5 20
10 20 6 0 10 9 10 20 0 11 5 20 10 20 6 0 10 9 10 20 0 13 7 20 20 20 13 0 20
7 20 20 0 11 5 20 10 20 6 0 10 9 10 20 0 13 7 20 20 20 13 0 20 7 20 20 0 13
7 20 20 20 17 0 20 7 20 40 0 33 3 40 20 40 13 0 20 7 20 20 0 13 7 20 20 20
13 0 20 7 20 20 0 11 5 20 10 20 6 0 10 9 10 20 0 11 5 20 10 20 6 0 10 18 10
40 0 33 3 40 20 40 13 0 20 7 20 20 0 11 5 20 10 20 6 0 10 9 10 20 0 13 7 20
20 20 17 0 20 7 20 40 0 22 5 40 10 40 6 0 10 9 10 20 0 11 5 20 10 20 6 0 10
18 10 39 0 22 3 41 8 43 18 8 40 65 35 91 -3 16 -1 27 6 27 6 0 11 9 11 20 0
13 7 20 20 20 18 0 20 7 20 85 0 77 -2 85 -19 85 -10 0 -21 8 -23 18 -3 10
-23 22 -51 31 -27 7 -47 19 -47 27 0 8 -9 14 -19 14 -14 0 -19 6 -16 20 2 12
-2 20 -10 20 -7 0 -15 5 -17 11 -5 16 -393 -184 -598 -307 -91 -55 -241 -144
-333 -198 -201 -116 -316 -190 -376 -240 -27 -23 -48 -33 -53 -28 -6 6 -5 103
2 253 10 213 7 524 -5 585 -3 11 -16 26 -30 32 -24 11 -25 14 -11 34 13 22 23
499 30 1545 0 89 5 165 9 169 22 23 723 29 1322 14z m-2280 -1636 c38 -2 71
-8 73 -14 2 -5 30 -10 62 -10 32 0 61 -4 65 -9 3 -6 27 -13 53 -16 49 -6 88
-15 160 -36 28 -8 42 -18 42 -30 0 -19 0 -19 -520 -39 -279 -11 -1274 -22
-1210 -14 108 15 264 44 273 53 7 5 29 12 50 16 20 4 37 13 37 20 0 7 20 15
50 19 28 4 50 11 50 16 0 4 30 12 68 16 37 3 69 10 72 14 3 4 77 12 165 18
142 9 290 8 510 -4z m-1392 -165 c12 -1 4 -5 -18 -8 -54 -9 -65 -4 -65 31 l0
30 31 -26 c17 -14 40 -27 52 -27z m54 -5 c-3 -3 -12 -4 -19 -1 -8 3 -5 6 6 6
11 1 17 -2 13 -5z"/>
</g>
</svg>
